<?xml version="1.0" encoding="UTF-8"?>
<svg version="1.1" xmlns="http://www.w3.org/2000/svg" width="1649" height="1649">
<path d="M0 0 C1.85087696 -0.00231072 3.70175299 -0.00549131 5.55262715 -0.00945449 C10.58652262 -0.01772848 15.62034132 -0.0137111 20.65423691 -0.00748205 C26.10454371 -0.00292742 31.55483797 -0.00995652 37.00514221 -0.01544189 C47.66652415 -0.02430863 58.32787783 -0.02242514 68.98926084 -0.01661661 C77.66892997 -0.01208537 86.34859122 -0.01149354 95.02826118 -0.01366425 C96.26740498 -0.01397071 97.50654878 -0.01427718 98.78324239 -0.01459293 C101.30138119 -0.01523245 103.81951998 -0.01588088 106.33765877 -0.01653811 C129.25383704 -0.02207231 152.1700026 -0.01634546 175.08617816 -0.00585292 C195.92733847 0.00361719 216.76847431 0.00280484 237.6096344 -0.0067749 C261.09120643 -0.01753255 284.5727657 -0.02166551 308.05433995 -0.01555037 C310.56800624 -0.01491337 313.08167253 -0.01428462 315.59533882 -0.01366425 C316.83171785 -0.01335569 318.06809688 -0.01304714 319.34194193 -0.01272924 C327.98646318 -0.01101426 336.63097564 -0.01389173 345.27549553 -0.01862335 C355.8471744 -0.024283 366.41882364 -0.02261131 376.99049919 -0.01206186 C382.36800937 -0.00686966 387.7454705 -0.00463519 393.12298012 -0.01136017 C424.37775847 -0.04717112 455.68054938 0.21802422 486.69923401 4.50396729 C487.49355835 4.60968048 488.28788269 4.71539368 489.10627747 4.8243103 C551.77008949 13.17603847 610.95447872 32.17266589 667.94923401 59.25396729 C669.28679749 59.88770264 669.28679749 59.88770264 670.65138245 60.53424072 C697.84104887 73.5070881 723.57366616 89.59514367 747.94923401 107.25396729 C748.92352356 107.95586182 748.92352356 107.95586182 749.91749573 108.67193604 C766.86193868 120.88938846 783.00256584 133.92851066 798.45289612 147.99298096 C799.99972338 149.39397531 801.55387603 150.78698279 803.11940002 152.16705322 C809.95031786 158.20863034 816.42078448 164.57208266 822.85475159 171.02911377 C824.64098071 172.82072679 826.43252748 174.60689783 828.22462463 176.39263916 C834.01395449 182.17830552 839.65969093 188.00189072 844.94923401 194.25396729 C845.97007946 195.41120692 846.99350979 196.5661716 848.01954651 197.71881104 C855.46515551 206.15740922 862.41349513 214.8843626 869.15699768 223.89141846 C870.48564124 225.64285337 871.83242537 227.3805586 873.18873596 229.11065674 C879.79503561 237.53887831 885.84934365 246.26560264 891.76173401 255.19146729 C892.24068115 255.91218414 892.7196283 256.632901 893.21308899 257.37545776 C901.21594541 269.43231177 908.85177184 281.63867581 915.94923401 294.25396729 C916.44004456 295.11361084 916.9308551 295.97325439 917.4365387 296.85894775 C952.78554038 358.89747796 976.37615905 430.38559319 984.94923401 501.25396729 C985.03795776 501.97535889 985.12668152 502.69675049 985.21809387 503.44000244 C997.05538665 600.5943207 985.46010581 700.83185469 890.94923401 900.25396729 C890.47389221 900.93894287 889.99855042 901.62391846 889.50880432 902.32965088 C883.17041816 911.44235314 876.71048553 920.4491596 869.94923401 929.25396729 C869.53882874 929.79053955 869.12842346 930.32711182 868.70558167 930.87994385 C858.73968176 943.87568705 847.96620179 956.14311618 836.94923401 968.25396729 C836.18095276 969.11506104 835.41267151 969.97615479 834.62110901 970.86334229 C828.68731458 977.45240235 822.52173369 983.78652361 816.26173401 990.06646729 C815.46589905 990.86689453 814.67006409 991.66732178 813.85011292 992.49200439 C809.04378697 997.28584767 804.09414174 1001.82838658 798.94923401 1006.25396729 C797.34155028 1007.70842246 795.73683686 1009.16617623 794.13673401 1010.62896729 C785.0604992 1018.80724888 775.43706682 1026.3468659 765.78517151 1033.83013916 C764.58792584 1034.75864139 763.39251959 1035.68952176 762.19923401 1036.62310791 C732.70769868 1059.63045522 700.34086845 1078.55346812 666.94923401 1095.25396729 C665.89800354 1095.78618896 664.84677307 1096.31841064 663.76368713 1096.86676025 C630.81068229 1113.50686664 595.72024994 1126.21431523 559.94923401 1135.25396729 C558.97309143 1135.50243408 557.99694885 1135.75090088 556.9912262 1136.00689697 C541.09145767 1140.02384137 525.09566143 1143.38890931 508.94923401 1146.25396729 C508.29308105 1146.3717453 507.6369281 1146.48952332 506.96089172 1146.61087036 C495.16762771 1148.71363897 483.371044 1150.27771247 471.44923401 1151.44146729 C470.57225861 1151.52735107 469.6952832 1151.61323486 468.79173279 1151.70172119 C429.67809003 1155.44938964 393.90400553 1155.1927326 361.88111877 1129.28326416 C341.09482801 1111.92766182 326.70312463 1087.2635741 322.94923401 1060.25396729 C321.02740345 1036.02915668 321.8125571 1011.48613632 321.81113434 987.21082306 C321.8099773 979.44798227 321.79702201 971.68518723 321.78157043 963.92236328 C321.77899758 962.60273598 321.77642473 961.28310868 321.77377391 959.92349267 C321.76983696 957.90575054 321.76589008 955.88800844 321.76191269 953.87026639 C321.7470652 946.32124823 321.73338845 938.77222852 321.72120667 931.22320557 C321.71953632 930.19199454 321.71953632 930.19199454 321.71783224 929.13995096 C321.7002354 917.98627278 321.69739098 906.83263091 321.69905707 895.67894116 C321.70034278 884.14613092 321.6821109 872.6134763 321.6480391 861.08071399 C321.62971197 854.63770334 321.62012126 848.19496103 321.63251495 841.75193024 C321.64406042 835.69399391 321.63199653 829.63653779 321.60288048 823.57866478 C321.59631564 821.37588298 321.59797393 819.17305613 321.60917854 816.97029305 C321.71058962 795.20338487 317.87423057 775.15120156 308.94923401 755.25396729 C308.67353577 754.63231689 308.39783752 754.0106665 308.11378479 753.37017822 C302.3230947 740.52889894 294.69827169 728.67979756 285.01564026 718.44146729 C283.14533665 716.46156176 281.4258747 714.42067806 279.69923401 712.31646729 C257.37291829 686.85933488 221.21951989 671.05678237 187.94923401 668.25396729 C179.91909535 667.88042865 171.872355 667.9730403 163.83570862 667.98272705 C161.41454393 667.97833323 158.99338074 667.9730287 156.57221985 667.96688843 C151.38050728 667.95543663 146.18882257 667.94973916 140.99709892 667.94900703 C133.46812408 667.94767207 125.93922233 667.93247857 118.4102735 667.91351186 C106.16098101 667.88274956 93.91168665 667.85855037 81.66236877 667.84063721 C80.93113124 667.83956453 80.1998937 667.83849185 79.44649745 667.83738666 C71.29836343 667.82558007 63.15022866 667.81537141 55.00209045 667.8069458 C52.05095925 667.80387182 49.09982806 667.800783 46.1486969 667.79766846 C45.4204866 667.79690312 44.69227629 667.79613778 43.94199901 667.79534925 C31.74293974 667.78220832 19.54393348 667.7574882 7.34491354 667.72392505 C0.51506777 667.70557777 -6.31469095 667.69303818 -13.14456367 667.69522285 C-19.57566162 667.69698785 -26.0065932 667.68504433 -32.43765259 667.66310501 C-34.78155818 667.65755935 -37.1254823 667.65696977 -39.46938896 667.66204262 C-75.53266187 667.73183811 -106.53364089 660.82881261 -133.30076599 635.37896729 C-144.34560194 623.75526152 -152.99308849 609.76832157 -158.42576599 594.69146729 C-158.65223816 594.0686084 -158.87871033 593.44574951 -159.11204529 592.80401611 C-163.53275683 579.67810786 -164.49149046 566.90920886 -164.43844604 553.19779968 C-164.44262783 551.41861593 -164.44810994 549.63943485 -164.45476586 547.86025864 C-164.46912907 543.01108848 -164.46500445 538.16208961 -164.45759904 533.31291044 C-164.45284677 528.06728959 -164.46539554 522.8217047 -164.47561646 517.57609558 C-164.49277119 507.31369895 -164.49365115 497.05136364 -164.48840355 486.7889564 C-164.48435342 478.44090769 -164.48581542 470.09287703 -164.49115181 461.74482918 C-164.49190023 460.55425737 -164.49264865 459.36368557 -164.49341976 458.13703584 C-164.49495133 455.71792093 -164.49648968 453.29880603 -164.49803472 450.87969113 C-164.51174844 428.21603712 -164.50633063 405.55241767 -164.49484951 382.88876445 C-164.48492446 362.19226184 -164.49784726 341.49584872 -164.5217837 320.79935991 C-164.54621702 299.51159591 -164.5557718 278.22387351 -164.54913098 256.93609577 C-164.54564737 244.99943348 -164.54781363 233.06283992 -164.565382 221.12618828 C-164.58015725 210.9617357 -164.58067051 200.79740024 -164.56331109 190.63294982 C-164.55484125 185.45549052 -164.55255226 180.27823995 -164.56796265 175.10079193 C-164.67956425 134.75688092 -164.67956425 134.75688092 -160.05076599 117.25396729 C-159.60516657 115.52779253 -159.60516657 115.52779253 -159.15056515 113.76674557 C-158.46077595 111.25840789 -157.67515259 108.82824338 -156.80076599 106.37896729 C-156.50557068 105.52439941 -156.21037537 104.66983154 -155.90623474 103.78936768 C-152.97645584 95.5754138 -149.25193131 87.88273645 -145.05076599 80.25396729 C-144.48615662 79.19951416 -143.92154724 78.14506104 -143.33982849 77.05865479 C-124.16371311 42.57765858 -90.04688285 16.71044101 -52.29685974 5.84381104 C-50.61265543 5.38973634 -48.92644568 4.94303147 -47.23826599 4.50396729 C-46.49351013 4.30520996 -45.74875427 4.10645264 -44.98143005 3.90167236 C-30.24919457 0.29286247 -15.08142211 -0.04167271 0 0 Z " fill="#074686" transform="translate(469.05076599121094,4.74603271484375)"/>
<path d="M0 0 C2.08073793 -0.00572181 4.16147274 -0.01269294 6.24220276 -0.02079773 C11.82721673 -0.03854628 17.41207204 -0.03759546 22.9971056 -0.03185534 C27.69059909 -0.02873614 32.38406328 -0.0348861 37.07755256 -0.04089409 C48.16679876 -0.05487822 59.25596783 -0.05342979 70.34521484 -0.04199219 C81.71564596 -0.03052239 93.08584088 -0.04458173 104.45624089 -0.07138866 C114.28289277 -0.09367293 124.1094712 -0.10015443 133.9361465 -0.09431225 C139.77677625 -0.09097109 145.6172548 -0.09316549 151.45786285 -0.11056328 C199.07930321 -0.23883421 244.29407404 3.66049427 280.27636719 38.40405273 C281.64426336 39.57904047 283.01873702 40.74643884 284.40136719 41.90405273 C310.19697903 64.55385825 325.2638021 100.63052991 328.27636719 134.40405273 C328.63830685 141.45533142 328.56073869 148.52177207 328.55102539 155.58007812 C328.55538092 157.68597594 328.56056685 159.79187218 328.56651306 161.89776611 C328.57982729 167.58206817 328.58048996 173.26630343 328.57794976 178.95061803 C328.57687438 183.716206 328.58177811 188.48178077 328.58655518 193.24736589 C328.5976253 204.50460177 328.59810257 215.76180429 328.59204102 227.01904297 C328.58600993 238.58193072 328.59829607 250.14469651 328.61961108 261.70756346 C328.63730516 271.67752604 328.643216 281.64745009 328.63997334 291.61742777 C328.63817194 297.5530256 328.64068086 303.48853652 328.65468788 309.42411995 C328.66738848 315.0147386 328.66520814 320.60516931 328.65227699 326.19578552 C328.64993761 328.23008733 328.6525492 330.26440288 328.66090012 332.29868889 C328.72550424 349.28123096 328.03033336 366.91069999 322.15136719 383.02905273 C321.85206299 383.88257324 321.55275879 384.73609375 321.24438477 385.61547852 C308.27274155 421.53338568 283.66649569 452.24488712 249.37011719 469.90014648 C246.69526685 471.13380591 243.99930576 472.28098835 241.27636719 473.40405273 C240.3340625 473.82299805 239.39175781 474.24194336 238.42089844 474.67358398 C217.64089688 483.7596877 196.63254953 485.86298628 174.19726562 485.80810547 C172.05446521 485.81382416 169.91166783 485.82079413 167.76887512 485.8289032 C162.00619826 485.84668613 156.2436749 485.84569425 150.48097897 485.83996081 C145.64324856 485.83684667 140.80554671 485.84298608 135.96782041 485.84899956 C124.54020846 485.86299499 113.11267134 485.86152574 101.68505859 485.85009766 C89.95676868 485.83862694 78.22870774 485.85268615 66.50044799 485.87949413 C56.37493222 485.90175879 46.24948776 485.90826423 36.12394929 485.90241772 C30.1011495 485.89907191 24.0784963 485.9013029 18.05571747 485.91866875 C12.3853587 485.93430817 6.71533498 485.9299969 1.04498863 485.9113636 C-1.01588954 485.90772394 -3.07679351 485.91064791 -5.13764763 485.92124939 C-24.94997998 486.01525346 -44.16557697 483.62353508 -62.72363281 476.40405273 C-63.74199219 476.02506836 -64.76035156 475.64608398 -65.80957031 475.25561523 C-98.24474238 462.57099414 -127.8312848 435.52694748 -142.47363281 403.77905273 C-143.233073 401.99136707 -143.98305309 400.19963373 -144.72363281 398.40405273 C-145.14257812 397.46174805 -145.56152344 396.51944336 -145.99316406 395.54858398 C-155.19024798 374.51476971 -157.18614082 353.05551374 -157.11181641 330.34741211 C-157.11589411 328.21930168 -157.12124263 326.09119338 -157.12774658 323.96308899 C-157.14128356 318.24611663 -157.1361785 312.52930886 -157.12660933 306.81233406 C-157.11894137 300.79061611 -157.12607793 294.76891097 -157.13076782 288.74719238 C-157.1362048 278.64043687 -157.12908808 268.53374741 -157.11474609 258.42700195 C-157.09842363 246.79125406 -157.1037136 235.15566395 -157.12022531 223.51991987 C-157.13389913 213.47681068 -157.13573117 203.43374861 -157.1279093 193.39063311 C-157.12326504 187.41548106 -157.12251746 181.44040285 -157.13251877 175.46525574 C-157.14127256 169.84418142 -157.13501516 164.22330782 -157.117836 158.60225487 C-157.11391561 156.55624408 -157.11492735 154.510216 -157.12162399 152.46421242 C-157.17125463 135.74129939 -156.32753811 118.72356642 -150.59863281 102.84155273 C-150.29932861 101.98352051 -150.00002441 101.12548828 -149.69165039 100.24145508 C-135.72560998 61.37043833 -109.10534856 31.40964371 -71.91162109 13.3972168 C-65.69784927 10.57668301 -59.22642907 8.44659145 -52.72363281 6.40405273 C-51.98302006 6.16523284 -51.24240732 5.92641295 -50.47935176 5.68035609 C-44.67556421 3.86050495 -38.97799711 2.58016593 -32.95635986 1.74180603 C-32.05190856 1.61545082 -31.14745726 1.48909561 -30.21559834 1.35891145 C-20.14499045 0.05712059 -10.13926179 -0.0256746 0 0 Z " fill="#074686" transform="translate(461.7236328125,1159.595947265625)"/>
</svg>
