<?xml version="1.0" encoding="UTF-8"?>
<!DOCTYPE svg PUBLIC "-//W3C//DTD SVG 1.1//EN" "http://www.w3.org/Graphics/SVG/1.1/DTD/svg11.dtd">
<!-- Creator: CorelDRAW -->
<svg xmlns="http://www.w3.org/2000/svg" xml:space="preserve" width="186.622mm" height="185.564mm" version="1.1" style="shape-rendering:geometricPrecision; text-rendering:geometricPrecision; image-rendering:optimizeQuality; fill-rule:evenodd; clip-rule:evenodd"
viewBox="0 0 2267.2 2254.35"
 xmlns:xlink="http://www.w3.org/1999/xlink"
 xmlns:xodm="http://www.corel.com/coreldraw/odm/2003">
 <defs>
  <style type="text/css">
   <![CDATA[
    .fil0 {fill:white}
   ]]>
  </style>
 </defs>
 <g id="Camada_x0020_1">
  <metadata id="CorelCorpID_0Corel-Layer"/>
  <path class="fil0" d="M3.52 987.62c4.04,-8.51 5.95,-19.5 8.87,-28.55 7.15,-22.17 19.05,-42.02 32.36,-61 17.4,-24.81 36.94,-48.21 53.48,-73.56 38.78,-59.44 49.64,-107.92 55.84,-178.54 7.06,-80.36 23.31,-160.19 94.49,-207.88 23.81,-15.95 50.65,-27.11 76.48,-39.32 29.69,-14.04 56.71,-29.09 82.89,-49.11 53.76,-41.12 76.17,-89.94 113.43,-143.2 46.67,-66.71 98.87,-97.25 182.55,-99.38 79.16,-2.02 142.09,11.06 218.09,-19.58 27.54,-11.11 51.59,-27.73 76.63,-43.34 17.22,-10.73 34.6,-18.02 53.66,-24.68 13.29,-4.64 26.86,-8.9 39.39,-15.39 5.42,-2.81 10.65,-4.08 16.75,-4.08l50.26 0c6.14,0 11.4,1.29 16.84,4.12 11.92,6.21 25.03,10.36 37.68,14.81 18.37,6.47 35.34,13.5 52.04,23.7 39.03,23.85 89.44,55.48 135.62,62.05 19.72,2.8 40.58,2.47 60.47,2.25 34.09,-0.38 67.88,-0.74 101.99,0.19 45.5,1.25 88.56,11.12 125.49,38.83 29.4,22.07 49.32,51.14 68.86,81.69 19.33,30.24 37.42,59.3 61.82,85.94 31.4,34.28 68.36,59.6 110.26,79.52 30.02,14.27 64.01,27.49 90.81,47.15 67.27,49.35 82.22,102.98 89.58,181.15 7.42,78.83 14.34,131.78 57.37,201.57 11.12,18.04 23.47,32.67 36.56,49.1 17.65,22.16 30.99,43.83 43.21,69.46 4.56,9.57 7.54,19.47 10.45,29.62 1.56,5.45 3.25,12.08 5.74,17.17 2.55,5.22 3.69,10.19 3.69,15.99l0 50.37c0,4.53 -0.69,8.4 -2.26,12.65l-34.05 92.04c-0.18,0.48 -0.34,0.89 -0.54,1.37 -21.98,52.77 -41.44,109.19 -34.8,167.13 2.39,20.87 7.29,41.59 10.86,62.29 5.06,29.35 7.41,57.68 6.56,87.5 -2.27,79.76 -36.67,124.64 -95.85,172.84 -52.68,42.91 -93.71,72.75 -124.51,136.37 -29.21,60.33 -35.76,131.4 -80.56,184.87 -48.17,57.49 -103.09,68.66 -172.27,83.37 -72.79,15.48 -122.95,34.46 -178.87,86.28 -22.9,21.22 -44.09,43.13 -68.18,63.19 -18.36,15.29 -37.33,27.26 -59.91,35.22 -10.79,3.8 -23.73,6.38 -33.95,11.14 -5.05,2.35 -9.82,3.41 -15.39,3.41l-49.67 0c-5.75,0 -10.67,-1.12 -15.84,-3.62 -7.96,-3.84 -21.44,-7.17 -30.05,-9.49 -18.56,-5 -37.4,-9.34 -56.21,-13.31 -19.84,-4.18 -39.85,-7.96 -59.9,-10.96 -13.32,-1.99 -28.79,-4.26 -42.25,-4.14 -12.03,0.11 -25.95,2.34 -37.84,4.19 -19.06,2.97 -38.09,6.61 -56.98,10.56 -18.83,3.95 -37.66,8.25 -56.28,13.11 -11.67,3.05 -25,6.45 -36.17,10.98 -4.56,1.85 -8.77,2.67 -13.69,2.67l-44.12 0c-6.15,0 -11.42,-1.29 -16.87,-4.14 -7.1,-3.71 -14.67,-6.11 -22.26,-8.56 -12.23,-3.94 -23.74,-7.99 -35.34,-13.65 -40.49,-19.75 -76.52,-55.24 -106.5,-88.16 -46.71,-51.27 -103.51,-67.41 -168.68,-82.15 -67.97,-15.37 -135.53,-28.56 -180.69,-87.02 -42.9,-55.54 -51.31,-122 -80.36,-183.21 -21.29,-44.88 -46.92,-75.38 -85.3,-106.23 -35.71,-28.71 -69.43,-50.41 -96.66,-88.6 -26.07,-36.57 -37.13,-74.91 -37.83,-119.84 -0.65,-41.67 6.73,-76.5 13.19,-116.96 6.18,-38.73 6.49,-70.57 -1.19,-109.33 -4.85,-24.46 -11.93,-45.97 -21.88,-68.75 -9.91,-22.66 -20.35,-44.07 -28.36,-67.62 -2.98,-8.76 -5.06,-17.79 -7.34,-26.75 -1.1,-4.3 -2.62,-10.92 -4.58,-14.86 -2.64,-5.29 -3.83,-10.35 -3.83,-16.26l0 -48.99c0,-5.66 1.09,-10.51 3.52,-15.63zm32.92 15.63l0 48.99c5.9,11.83 8.93,31.79 13.81,46.13 16.9,49.63 38.62,76.07 51.5,141.02 20.23,102.05 -12.65,146.11 -11.31,232.81 0.66,42.43 11.86,72.31 31.06,99.25 49.02,68.76 128.76,81.4 185.21,200.37 28.54,60.14 37.77,126.72 76.27,176.56 74.47,96.41 236.07,44.63 347.47,166.91 87.89,96.48 115.54,82.51 154.03,102.6l44.12 0c35.27,-14.29 160.95,-41.16 200.63,-41.52 46.62,-0.41 178.49,28.93 204.58,41.52l49.67 0c24.81,-11.56 45.81,-7.93 85.93,-41.33 26.96,-22.45 42.66,-39.61 66.73,-61.91 143.01,-132.52 263.82,-65.89 347.98,-166.32 37.93,-45.27 48.65,-121.48 75.69,-177.34 73.33,-151.49 212.54,-147.05 216.73,-294.37 3.67,-129.25 -56.26,-146.41 20.17,-329.9l34.05 -92.04 0 -50.37c-6.8,-13.93 -9.15,-32.02 -16.34,-47.1 -28.56,-59.9 -49,-68.23 -77.9,-115.12 -106.66,-173.02 -14.52,-282.24 -137.48,-372.46 -22.05,-16.18 -56.91,-30.32 -84.89,-43.62 -221.53,-105.29 -160.26,-277.2 -351.78,-282.47 -170.61,-4.69 -168.25,20.53 -316.08,-69.82 -31.62,-19.32 -59.57,-22.71 -87.56,-37.29l-50.26 0c-29.77,15.41 -57.72,18.18 -90.52,38.63 -24.42,15.22 -50.7,33.48 -82.29,46.22 -84.33,34 -139.62,19.88 -230.79,22.21 -166.35,4.25 -151.72,140.97 -274.78,235.1 -129.73,99.23 -220.32,49.97 -239.7,270.56 -7.44,84.75 -22.34,135.06 -61.63,195.26 -17.08,26.17 -35.92,48.55 -54.17,74.57 -33.89,48.33 -26.77,60.29 -38.15,84.26z"/>
 </g>
</svg>
